. 
 
http://www.torrenting.com          :     Once & For all ;)


               www . Torrenting . Com 

(((((((((((((= Enjoy No RAR releases =))))))))))))))))))))


...................................NFO:....................................

.[IMG]http://img37.imageshack.us/img37/8675/ounderworldawakeningnew.jpg[/IMG]

Complete name                    : Underworld.Awakening.2012.R5.FULL.LiNE.H264.AC3-DTRG.mkv
Format                           : Matroska
Format version                   : Version 2
File size                        : 698 MiB
Duration                         : 1h 25mn
Overall bit rate                 : 1 146 Kbps
Encoded date                     : UTC 2012-02-15 16:55:22
Writing application              : mkvmerge v5.2.1 ('A Far Off Place') built on Jan  2 2012 23:21:10
Writing library                  : libebml v1.2.3 + libmatroska v1.3.0

Video
ID                               : 1
Format                           : AVC
Format/Info                      : Advanced Video Codec
Format profile                   : Main@L4.2
Format settings, CABAC           : Yes
Format settings, ReFrames        : 4 frames
Muxing mode                      : Header stripping
Codec ID                         : V_MPEG4/ISO/AVC
Duration                         : 1h 25mn
Bit rate                         : 1 017 Kbps
Width                            : 720 pixels
Height                           : 304 pixels
Display aspect ratio             : 2.35:1
Frame rate                       : 25.000 fps
Color space                      : YUV
Chroma subsampling               : 4:2:0
Bit depth                        : 8 bits
Scan type                        : Progressive
Bits/(Pixel*Frame)               : 0.186
Stream size                      : 606 MiB (87%)
Writing library                  : x264 core 120 r2146 bcd41db
Language                         : English
Default                          : Yes
Forced                           : No
Source                           : DVDR5 Russians, thanks...

Audio
ID                               : 2
Format                           : AC-3
Format/Info                      : Audio Coding 3
Mode extension                   : CM (complete main)
Muxing mode                      : Header stripping
Codec ID                         : A_AC3
Duration                         : 1h 25mn
Bit rate mode                    : Constant
Bit rate                         : 128 Kbps
Channel(s)                       : 2 channels
Channel positions                : Front: L R
Sampling rate                    : 44.1 KHz
Bit depth                        : 16 bits
Compression mode                 : Lossy
Stream size                      : 78.0 MiB (11%)
Default                          : Yes
Forced                           : No
Source                           : SiC/Rx FiLTERED AUDiO, thanks...

iMDB: http://www.imdb.com/title/tt1496025/

Encoder: Kareemzos...

DTRG bringing the p2p world yet another release, Underworld Awakening R5 FULL LiNE.....

pretty nice R5 this, other releases have used cam audio with line 
but thanks to SiC this is full line audio, no CAM in it at all......
on that note, killerhz/Rx filtered the audio for UA and made it better so
big thanks to him for sharing...you're awesome, snm......
took the dvd5 and filtered it to the way i wanted, come out very nice....
yep its 700mb for the low bandwidth users.....
quite a few screenshots but they can't tell ya the real Q of the release so...
CHECK THE GOD DAMN SAMPLE!!!!!!!!!! enjoy folks.....

[b][i][size=6]SCREENSHOTS:[/b][/i][/size]

[IMG]http://img138.imageshack.us/img138/7166/24054332.png[/IMG]
[IMG]http://img593.imageshack.us/img593/6923/76538519.png[/IMG]
[IMG]http://img259.imageshack.us/img259/4033/93031559.png[/IMG]
[IMG]http://img846.imageshack.us/img846/1355/51949243.png[/IMG]
[IMG]http://img864.imageshack.us/img864/5096/12301649.png[/IMG]
[IMG]http://img269.imageshack.us/img269/7741/82827018.png[/IMG]
[IMG]http://img571.imageshack.us/img571/4127/49175382.png[/IMG]
[IMG]http://img189.imageshack.us/img189/3710/81260222.png[/IMG]
[IMG]http://img833.imageshack.us/img833/999/44464766.png[/IMG]
[IMG]http://img256.imageshack.us/img256/459/52503069.png[/IMG]
[IMG]http://img215.imageshack.us/img215/8434/85721931.png[/IMG]
[IMG]http://img831.imageshack.us/img831/7374/55447393.png[/IMG]
[IMG]http://img221.imageshack.us/img221/4492/45148517.png[/IMG]
[IMG]http://img96.imageshack.us/img96/1220/95293838.png[/IMG]
[IMG]http://img259.imageshack.us/img259/2779/73864811.png[/IMG]
[IMG]http://img821.imageshack.us/img821/3826/35069461.png[/IMG]
[IMG]http://img706.imageshack.us/img706/2978/12064939.png[/IMG]
[IMG]http://img688.imageshack.us/img688/228/35317462.png[/IMG]
[IMG]http://img844.imageshack.us/img844/2277/97849828.png[/IMG]
[IMG]http://img221.imageshack.us/img221/339/10559482.png[/IMG]
[IMG]http://img16.imageshack.us/img16/8493/32391587.png[/IMG]
[IMG]http://img713.imageshack.us/img713/2913/75038361.png[/IMG]
[IMG]http://img855.imageshack.us/img855/6598/28391873.png[/IMG]
[IMG]http://img844.imageshack.us/img844/7944/85744313.png[/IMG]
[IMG]http://img205.imageshack.us/img205/5506/67587387.png[/IMG]
[IMG]http://img855.imageshack.us/img855/6188/35626999.png[/IMG]

Greetz to EMBER, ETRG, BHRG, FYA, 26k, CreWSaDe, PRESTiGE, RemixHD, LEGiTiMATE.......and maybe many more...........